<svg width="6" height="6" viewBox="0 0 6 6" fill="none" xmlns="http://www.w3.org/2000/svg">
<path d="M5.9363 2.75179V3.1118C5.9063 3.2218 5.9563 3.52179 5.7663 3.50179C5.5663 3.48179 5.70631 3.17179 5.6763 3.05179H3.9263C3.9263 3.05179 3.86631 3.01179 3.85631 3.00179C3.82631 2.96179 3.82631 2.88179 3.85631 2.85179C3.85631 2.84179 3.9063 2.8118 3.9163 2.8118H4.1863C4.1863 2.4018 4.1263 2.0018 4.0363 1.6118C3.7263 1.6618 3.4063 1.7018 3.0863 1.7018V2.96179C3.0863 2.96179 3.0163 3.0618 2.9963 3.0618H1.7263C1.7263 3.4718 1.7863 3.88179 1.8763 4.28179C2.1863 4.23179 2.5063 4.18179 2.8263 4.19179C2.8263 4.08179 2.8263 3.91179 2.9863 3.94179C3.0263 3.94179 3.0863 4.01179 3.0863 4.05179V5.6518C3.2063 5.6518 3.3663 5.45179 3.4663 5.60179C3.4763 5.62179 3.5263 5.73179 3.5263 5.75179C3.5463 5.93179 3.2363 5.8818 3.1363 5.9218C3.0163 5.9218 2.8963 5.9218 2.7763 5.9218C0.176303 5.7718 -0.973698 2.50179 0.986302 0.751795C2.8263 -0.898205 5.7863 0.341794 5.9263 2.78179L5.9363 2.75179ZM2.8463 0.241797C2.6663 0.271797 2.5063 0.411794 2.3963 0.551794C2.2063 0.781794 2.0763 1.0718 1.9763 1.3618C1.9763 1.3718 1.9963 1.3718 2.0063 1.3818C2.2663 1.4418 2.5763 1.44179 2.8463 1.46179V0.241797ZM3.0963 1.4518C3.2763 1.4518 3.4563 1.43179 3.6363 1.41179C3.7063 1.41179 3.8763 1.3918 3.9363 1.3618C3.9463 1.3618 3.9563 1.36179 3.9663 1.34179C3.8763 1.08179 3.7563 0.801797 3.5863 0.581797C3.4663 0.421797 3.2963 0.261796 3.0963 0.221796V1.44179V1.4518ZM2.2663 0.321795C1.8963 0.411795 1.5363 0.601795 1.2463 0.841795C1.1963 0.881795 1.0663 0.991796 1.0363 1.0418C1.0363 1.0418 1.0163 1.05179 1.0263 1.07179C1.2563 1.17179 1.4963 1.2618 1.7463 1.3118C1.8563 0.951796 2.0263 0.601796 2.2763 0.311796L2.2663 0.321795ZM4.9263 1.07179C4.9263 1.07179 4.9263 1.0518 4.9163 1.0418C4.8763 0.991796 4.7563 0.881795 4.7063 0.841795C4.4163 0.601795 4.0463 0.411795 3.6863 0.321795C3.9363 0.601795 4.1163 0.951795 4.2163 1.32179C4.4663 1.26179 4.7063 1.1818 4.9363 1.0818L4.9263 1.07179ZM0.256303 2.8118H1.4863C1.4863 2.6018 1.5063 2.3818 1.5363 2.1718C1.5663 1.9618 1.6163 1.76179 1.6463 1.55179C1.3663 1.49179 1.0963 1.38179 0.836301 1.26179C0.496301 1.70179 0.276301 2.2518 0.266301 2.8118H0.256303ZM4.4563 2.8118H5.6863C5.6763 2.2518 5.4563 1.70179 5.1163 1.26179C4.8563 1.38179 4.5863 1.49179 4.3063 1.55179C4.3463 1.76179 4.3963 1.9718 4.4163 2.1818C4.4363 2.3918 4.4563 2.6018 4.4663 2.8118H4.4563ZM2.8463 1.69179C2.5263 1.69179 2.2063 1.65179 1.8963 1.60179C1.8163 2.00179 1.7363 2.40179 1.7463 2.80179H2.8463V1.69179ZM1.4863 3.05179H0.256303C0.266303 3.62179 0.486303 4.1718 0.826303 4.6118C1.0863 4.4818 1.3563 4.38179 1.6363 4.32179C1.6463 4.31179 1.5763 4.04179 1.5763 4.00179C1.5163 3.69179 1.4863 3.37179 1.4763 3.05179H1.4863ZM2.8463 4.41179C2.6663 4.41179 2.4863 4.4318 2.3063 4.4518C2.2263 4.4518 2.0763 4.47179 2.0063 4.50179C1.9963 4.50179 1.9863 4.5018 1.9763 4.5218C2.0663 4.7818 2.1863 5.06179 2.3563 5.28179C2.4763 5.44179 2.6463 5.60179 2.8463 5.64179V4.4218V4.41179ZM1.7263 4.55179C1.5063 4.61179 1.2763 4.6718 1.0663 4.7718C1.0463 4.7718 0.996303 4.7918 1.0063 4.8118C1.0063 4.8318 1.1963 5.0018 1.2363 5.0218C1.5263 5.2618 1.8963 5.4518 2.2563 5.5418C2.0063 5.2618 1.8263 4.9118 1.7263 4.5418V4.55179Z" fill="#425563"/>
<path d="M3.37637 3.24219C3.37637 3.24219 3.45637 3.25218 3.48637 3.26218C4.25637 3.46218 5.01636 3.81218 5.78636 4.03218C5.89636 4.07218 5.90637 4.21218 5.80637 4.26218L4.71636 4.68219L4.29636 5.78218C4.23636 5.87218 4.11637 5.86218 4.06637 5.76218L3.27637 3.37218C3.27637 3.31218 3.32637 3.25219 3.37637 3.24219ZM5.37637 4.15219L3.59637 3.56219L4.18636 5.34219L4.52637 4.50219L5.37637 4.15219Z" fill="#425563"/>
</svg>
